<svg xmlns="http://www.w3.org/2000/svg" viewBox="0 0 800 143">
  <path fill="#f15eaf" d="M534.769.904h-25.846v48.615C505.231 13.211 491.692.904 472 .904c-14.769 0-25.846 7.384-32.615 26.461C434.461 8.288 420.308.904 396.923.904h-25.846v48.615h-.616C366.769 13.211 353.231.904 333.539.904c-19.077 0-32.616 12.307-36.924 48.615H296V.904h-33.231l-12.307 72.615h-.616L239.385.904h-34.462v27.692C201.846 11.98 192 .904 173.538.904c-20.307 0-31.384 14.153-33.23 32-5.539-24-17.846-32-33.846-32-17.847 0-30.77 10.461-35.693 40.615C69.539 19.98 63.385.904 37.539.904 17.231.904.615 19.365.615 71.673c0 44.923 9.231 70.769 36.924 70.769 24.615 0 31.384-19.692 33.23-39.385 4.923 29.539 17.846 39.385 35.693 39.385 17.23 0 29.538-9.846 35.076-37.538 1.231 17.846 8 37.538 33.231 37.538 14.154 0 24.616-6.154 30.154-16.616v16.001H224V38.442h.615l17.231 103.385H256l17.231-103.385h.615v103.385h22.769V93.211h.616c3.692 36.308 17.23 48.616 36.923 48.616 19.077 0 32.615-12.308 36.923-48.616h.615v48.616h25.846V85.211H408c12.923 0 21.538-4.923 27.077-12.923 0 52.923 14.769 69.539 37.538 69.539 19.077 0 32.616-12.308 36.923-48.616v48.616H568v-21.539h-32.615V.904h-.616zM49.846 88.288c-.615 19.692-2.461 32-11.077 32-8 0-10.461-4.923-10.461-49.846 0-45.538 5.538-48.615 11.077-48.615 6.154 0 9.23 8.615 9.23 30.769l21.539-.616c-.615 6.154-.615 12.308-.615 19.693 0 6.769 0 12.923.615 18.461l-20.308-1.846zm66.462-2.461c0 29.538-3.693 35.076-9.231 35.076-6.154 0-9.231-6.153-9.231-35.076V56.904c0-29.539 3.692-35.077 9.231-35.077 6.154 0 9.231 6.153 9.231 35.077v28.923zM176 120.904c-11.077 0-11.077-13.539-11.077-20.924h-22.154c1.231-8 1.846-17.846 1.846-28.923 0-5.538 0-11.077-.615-16 11.077 25.231 43.077 32.616 43.077 52.923 0 4.924-2.462 12.924-11.077 12.924zm-12.308-86.77c0-7.384 3.693-12.307 9.846-12.307C184 21.827 184 34.75 184 42.134h21.539v41.231c-12.308-22.154-41.847-30.769-41.847-49.231zm179.693 51.693c0 29.538-3.693 35.692-9.231 35.692-6.154 0-9.231-6.154-9.231-35.692V56.904c0-29.539 3.692-35.693 9.231-35.693 6.154 0 9.231 6.154 9.231 35.693v28.923zm56-20.923h-2.462V22.442h1.846c8.616 0 16.616.615 16.616 20.923 0 17.231-5.539 21.539-16 21.539zm81.846 20.923c0 29.538-3.692 35.692-9.231 35.692-6.154 0-9.231-6.154-9.231-35.692V56.904c0-29.539 3.692-35.693 9.231-35.693 6.154 0 9.231 6.154 9.231 35.693v28.923zM571.692.904h25.846v140.923h-25.846zm99.693 0h-70.154v21.538h22.154v119.385h25.846V22.442h22.154V.904m106.461 0v74.461h-.615L753.846.904h-25.231V123.98L713.231.904h-37.539L656 141.827h21.539l3.692-31.385h20.923l3.692 31.385h44.923V56.288h.616l27.692 85.539h20.308V.904h-21.539zm-93.538 89.23l8-67.692h.615l7.385 67.692h-16z"></path>
</svg>
