<svg xmlns="http://www.w3.org/2000/svg" viewBox="0 0 737 266"><g fill="#f15eaf" fill-rule="nonzero"><path d="M270.846594 262.241196h-12.781228V4.13170093h19.900923V.72342056h-71.276302v3.40828037h19.863724V262.241196h-19.863724v3.366019h113.300107v-69.622393h-3.357738c-.726601 45.943421-19.898443 66.256374-45.785762 66.256374M480.938342 262.241196h-12.74403V4.13170093h19.863725V.72342056h-71.273822v3.40828037h19.858765V262.241196h-19.858765v3.366019h113.300107v-69.622393h-3.357738c-.729081 45.943421-19.898443 66.256374-45.788242 66.256374M59.6612248 262.241196H49.1044362V132.448112h4.5282349c17.6368054 0 27.0206175 18.791533 27.0206175 47.39772h2.993198V79.7552523h-2.993198c0 24.4471407-8.2529933 49.2820937-27.0206175 49.2820937h-4.5282349V4.13170093h13.5078289c21.0342215 0 43.9283419 16.94693457 43.9283419 62.07743927h2.993198V.72342056H.32299664v3.40828037H17.5927819V262.241196H.32299664v3.366019H109.938023v-69.214692h-2.993197c0 48.901739-24.7540206 65.848673-47.2836012 65.848673M733.460594 196.268224c0 48.946486-24.75402 65.853645-47.283601 65.853645h-10.514631V132.323813h4.486078c17.636805 0 27.020617 18.813907 27.020617 47.402692h3.030396V79.6309533h-3.030396c0 24.4521117-8.250513 49.2870657-27.020617 49.2870657h-4.486078V4.02728972h13.465672c21.071419 0 43.930822 16.93201868 43.930822 62.07992528h3.032876V.62149533H626.836285v3.40579439h17.274745V262.121869h-17.274745v3.366019h109.617507v-69.219664h-2.993198"></path></g></svg>
